<svg width="900" height="500" viewBox="0 0 900 500" xmlns="http://www.w3.org/2000/svg">
<defs>
<marker id="ag" markerWidth="8" markerHeight="6" refX="7" refY="3" orient="auto">
<polygon points="0 0,8 3,0 6" fill="#888"/>
</marker>
<marker id="ab" markerWidth="10" markerHeight="7" refX="9" refY="3.5" orient="auto">
<polygon points="0 0,10 3.5,0 7" fill="#4C72B0"/>
</marker>
<marker id="ar" markerWidth="10" markerHeight="7" refX="9" refY="3.5" orient="auto">
<polygon points="0 0,10 3.5,0 7" fill="#C44E52"/>
</marker>
</defs>
<rect width="900" height="500" fill="#fff"/>

<line x1="60" y1="280" x2="500" y2="280" stroke="#999" stroke-width="1.2" marker-end="url(#ag)"/>
<line x1="280" y1="50" x2="280" y2="450" stroke="#999" stroke-width="1.2" marker-end="url(#ag)"/>
<text x="500" y="270" font-family="Times,serif" font-size="18" fill="#555" text-anchor="end" font-style="italic">Re</text>
<text x="290" y="55" font-family="Times,serif" font-size="18" fill="#555" text-anchor="start" font-style="italic">Im</text>
<circle cx="280" cy="280" r="4" fill="#333"/>

<line x1="280" y1="280" x2="415.9" y2="216.6" stroke="#4C72B0" stroke-width="3" marker-end="url(#ab)"/>
<line x1="280" y1="280" x2="348.1" y2="146.3" stroke="#C44E52" stroke-width="3" marker-end="url(#ar)"/>

<path d="M 329.8 256.8 A 55 55 0 0 1 305.0 231.0" fill="none" stroke="#55A868" stroke-width="2.5"/>

<text x="334" y="228" font-family="Times,serif" font-size="16" fill="#55A868" text-anchor="middle" font-style="italic">mθ</text>
<text x="334" y="238" font-family="Times,serif" font-size="20" fill="#4C72B0" text-anchor="middle" font-weight="bold" font-style="italic">q</text>
<text x="298" y="203" font-family="Times,serif" font-size="20" fill="#C44E52" text-anchor="middle" font-weight="bold" font-style="italic">q</text>
<text x="310" y="207" font-family="Times,serif" font-size="12" fill="#C44E52" text-anchor="middle" font-style="italic">m</text>

<text x="280" y="480" font-family="sans-serif" font-size="14" fill="#666" text-anchor="middle">╏═ ⓭⓭⓭⓭⓭ &#x1D508;&#x1D4A7;&#x1D4A7;&#x1D4B6;&#x1D4C7;&#x1D4BE;&#x1D4B6;&#x1D4C1; &#x2192; R(mθ) &#x77E9;&#x9635;</text>

<line x1="530" y1="280" x2="570" y2="280" stroke="#888" stroke-width="2.5" marker-end="url(#ag)"/>

<text x="740" y="120" font-family="sans-serif" font-size="18" fill="#333" text-anchor="middle" font-weight="bold">╏═ &#x65CB;&#x8F6C;&#x77E9;&#x9635; R(mθ)</text>

<line x1="630" y1="150" x2="630" y2="230" stroke="#333" stroke-width="2.5"/>
<line x1="630" y1="150" x2="642" y2="150" stroke="#333" stroke-width="2.5"/>
<line x1="630" y1="230" x2="642" y2="230" stroke="#333" stroke-width="2.5"/>
<line x1="848" y1="150" x2="848" y2="230" stroke="#333" stroke-width="2.5"/>
<line x1="836" y1="150" x2="848" y2="150" stroke="#333" stroke-width="2.5"/>
<line x1="836" y1="230" x2="848" y2="230" stroke="#333" stroke-width="2.5"/>
<line x1="642" y1="190" x2="836" y2="190" stroke="#ccc" stroke-width="0.8"/>

<text x="720" y="176" font-family="Times,serif" font-size="16" fill="#333" text-anchor="middle" font-style="italic">cos mθ</text>
<text x="792" y="176" font-family="Times,serif" font-size="16" fill="#333" text-anchor="middle" font-style="italic">-sin mθ</text>
<text x="720" y="214" font-family="Times,serif" font-size="16" fill="#333" text-anchor="middle" font-style="italic">sin mθ</text>
<text x="792" y="214" font-family="Times,serif" font-size="16" fill="#333" text-anchor="middle" font-style="italic">cos mθ</text>

<text x="739" y="285" font-family="Times,serif" font-size="20" fill="#C44E52" text-anchor="middle" font-weight="bold" font-style="italic">q</text>
<text x="748" y="288" font-family="Times,serif" font-size="13" fill="#C44E52" text-anchor="middle" font-style="italic">m</text>
<text x="768" y="285" font-family="Times,serif" font-size="20" fill="#C44E52" text-anchor="middle"> = R(mθ) · q</text>

<rect x="610" y="330" width="260" height="55" rx="8" fill="#f7f7f7" stroke="#e0e0e0" stroke-width="1"/>
<text x="740" y="355" font-family="Times,serif" font-size="14" fill="#555" text-anchor="middle" font-style="italic">e¹</text>
<text x="746" y="349" font-family="Times,serif" font-size="10" fill="#555" text-anchor="middle" font-style="italic">imθ</text>
<text x="765" y="355" font-family="sans-serif" font-size="14" fill="#555" text-anchor="middle">&#x65CB;&#x8F6C; &#x2192; R(mθ) &#x77E9;&#x9635;</text>
<text x="740" y="375" font-family="sans-serif" font-size="11" fill="#999" text-anchor="middle">&#x590D;&#x6570;&#x4E58;&#x6CD5;&#x5BF9;&#x5E94;&#x5B9E;&#x6570;&#x65CB;&#x8F6C;&#x77E9;&#x9635;</text>
</svg>